PathFileType	4	(X/Y/Z)	C:\Users\86182\Documents\cortex\Trimmed_M4_L16.trc
DataRate	CameraRate	NumFrames	NumMarkers	Units	OrigDataRate	OrigDataStartFrame	OrigNumFrames
100.00	100.00	       101	2	mm	100.00	1	       901
Frame#	Time	gripper			box			
		X1	Y1	Z1	X2	Y2	Z2	

1	0.000	275.47992	149.37753	192.17026	278.75073	146.26541	57.19603	
2	0.010	275.48007	149.37761	192.17029	278.74628	146.26672	57.19807	
3	0.020	275.48041	149.37778	192.17033	278.74301	146.26773	57.19954	
4	0.030	275.48096	149.37804	192.17041	278.74115	146.26836	57.20033	
5	0.040	275.48169	149.37840	192.17050	278.74054	146.26863	57.20051	
6	0.050	275.48264	149.37886	192.17062	278.74072	146.26863	57.20037	
7	0.060	275.48361	149.37935	192.17076	278.74091	146.26854	57.20032	
8	0.070	275.48441	149.37973	192.17087	278.74042	146.26852	57.20071	
9	0.080	275.48483	149.37994	192.17093	278.73895	146.26865	57.20167	
10	0.090	275.48483	149.37994	192.17093	278.73660	146.26894	57.20314	
11	0.100	275.48450	149.37979	192.17088	278.73315	146.26947	57.20519	
12	0.110	275.48407	149.37956	192.17082	278.72812	146.27040	57.20804	
13	0.120	275.48361	149.37935	192.17076	278.72156	146.27174	57.21161	
14	0.130	275.48328	149.37918	192.17072	278.71448	146.27332	57.21535	
15	0.140	275.48300	149.37904	192.17068	278.70871	146.27472	57.21832	
16	0.150	275.48273	149.37891	192.17065	278.70593	146.27554	57.21959	
17	0.160	275.48254	149.37881	192.17062	278.70709	146.27554	57.21872	
18	0.170	275.48251	149.37881	192.17062	278.71204	146.27472	57.21584	
19	0.180	275.48267	149.37888	192.17064	278.71973	146.27327	57.21153	
20	0.190	275.48288	149.37898	192.17065	278.72876	146.27142	57.20658	
21	0.200	275.48297	149.37903	192.17067	278.73767	146.26949	57.20183	
22	0.210	275.48282	149.37895	192.17065	278.74493	146.26778	57.19807	
23	0.220	275.48239	149.37874	192.17059	278.74973	146.26651	57.19572	
24	0.230	275.48178	149.37843	192.17052	278.75211	146.26575	57.19470	
25	0.240	275.48114	149.37813	192.17043	278.75259	146.26540	57.19467	
26	0.250	275.48062	149.37787	192.17036	278.75168	146.26532	57.19542	
27	0.260	275.48026	149.37769	192.17032	278.74951	146.26550	57.19685	
28	0.270	275.48004	149.37759	192.17029	278.74646	146.26587	57.19877	
29	0.280	275.48004	149.37759	192.17029	278.74316	146.26628	57.20082	
30	0.290	275.48022	149.37769	192.17032	278.74005	146.26668	57.20275	
31	0.300	275.48059	149.37788	192.17036	278.73676	146.26721	57.20470	
32	0.310	275.48117	149.37819	192.17044	278.73254	146.26807	57.20699	
33	0.320	275.48190	149.37857	192.17055	278.72729	146.26930	57.20970	
34	0.330	275.48270	149.37898	192.17065	278.72144	146.27078	57.21262	
35	0.340	275.48334	149.37933	192.17075	278.71576	146.27229	57.21540	
36	0.350	275.48361	149.37949	192.17079	278.71106	146.27362	57.21763	
37	0.360	275.48340	149.37938	192.17076	278.70810	146.27455	57.21893	
38	0.370	275.48282	149.37906	192.17067	278.70728	146.27496	57.21915	
39	0.380	275.48215	149.37863	192.17056	278.70828	146.27492	57.21845	
40	0.390	275.48166	149.37819	192.17044	278.71063	146.27451	57.21711	
41	0.400	275.48138	149.37775	192.17030	278.71436	146.27371	57.21510	
42	0.410	275.48138	149.37729	192.17015	278.71951	146.27255	57.21237	
43	0.420	275.48157	149.37682	192.17000	278.72534	146.27121	57.20933	
44	0.430	275.48184	149.37633	192.16985	278.73059	146.27002	57.20657	
45	0.440	275.48206	149.37590	192.16971	278.73425	146.26926	57.20459	
46	0.450	275.48203	149.37569	192.16965	278.73584	146.26901	57.20364	
47	0.460	275.48175	149.37575	192.16968	278.73566	146.26920	57.20359	
48	0.470	275.48132	149.37607	192.16978	278.73480	146.26952	57.20392	
49	0.480	275.48096	149.37651	192.16992	278.73428	146.26970	57.20413	
50	0.490	275.48083	149.37701	192.17007	278.73441	146.26968	57.20405	
51	0.500	275.48108	149.37758	192.17026	278.73520	146.26947	57.20366	
52	0.510	275.48175	149.37823	192.17044	278.73694	146.26901	57.20280	
53	0.520	275.48285	149.37897	192.17065	278.74026	146.26814	57.20117	
54	0.530	275.48431	149.37979	192.17087	278.74585	146.26671	57.19842	
55	0.540	275.48590	149.38060	192.17110	278.75385	146.26466	57.19442	
56	0.550	275.48724	149.38127	192.17128	278.76370	146.26219	57.18948	
57	0.560	275.48813	149.38168	192.17139	278.77420	146.25958	57.18419	
58	0.570	275.48856	149.38188	192.17145	278.78403	146.25719	57.17920	
59	0.580	275.48862	149.38190	192.17145	278.79208	146.25529	57.17504	
60	0.590	275.48828	149.38173	192.17142	278.79764	146.25404	57.17210	
61	0.600	275.48761	149.38141	192.17134	278.80060	146.25342	57.17052	
62	0.610	275.48682	149.38101	192.17123	278.80124	146.25330	57.17014	
63	0.620	275.48605	149.38063	192.17114	278.80029	146.25351	57.17065	
64	0.630	275.48547	149.38029	192.17102	278.79852	146.25388	57.17160	
65	0.640	275.48508	149.38002	192.17090	278.79669	146.25421	57.17262	
66	0.650	275.48471	149.37968	192.17072	278.79504	146.25449	57.17360	
67	0.660	275.48434	149.37927	192.17047	278.79312	146.25481	57.17472	
68	0.670	275.48401	149.37877	192.17017	278.79007	146.25542	57.17640	
69	0.680	275.48380	149.37827	192.16983	278.78516	146.25656	57.17895	
70	0.690	275.48373	149.37785	192.16953	278.77847	146.25822	57.18230	
71	0.700	275.48370	149.37758	192.16933	278.77097	146.26019	57.18600	
72	0.710	275.48343	149.37750	192.16937	278.76389	146.26207	57.18944	
73	0.720	275.48242	149.37769	192.16985	278.75818	146.26361	57.19218	
74	0.730	275.48001	149.37816	192.17093	278.75424	146.26465	57.19411	
75	0.740	275.47552	149.37901	192.17287	278.75153	146.26532	57.19547	
76	0.750	275.46844	149.38029	192.17581	278.74872	146.26590	57.19697	
77	0.760	275.45877	149.38210	192.17982	278.74481	146.26668	57.19914	
78	0.770	275.44727	149.38443	192.18465	278.74002	146.26761	57.20182	
79	0.780	275.43594	149.38705	192.18948	278.73560	146.26846	57.20436	
80	0.790	275.42853	149.38939	192.19281	278.73239	146.26913	57.20620	
81	0.800	275.43100	149.39037	192.19217	278.73029	146.26970	57.20737	
82	0.810	275.45209	149.38850	192.18399	278.72833	146.27040	57.20840	
83	0.820	275.50284	149.38184	192.16386	278.72543	146.27148	57.20980	
84	0.830	275.59518	149.36804	192.12695	278.72076	146.27318	57.21195	
85	0.840	275.73880	149.34483	192.06924	278.71356	146.27577	57.21506	
86	0.850	275.93628	149.31075	191.98955	278.70361	146.27937	57.21899	
87	0.860	276.17618	149.26683	191.89268	278.69171	146.28384	57.22312	
88	0.870	276.42926	149.21797	191.79155	278.67926	146.28865	57.22664	
89	0.880	276.65802	149.17140	191.70317	278.66766	146.29301	57.22895	
90	0.890	276.83508	149.13322	191.64063	278.65775	146.29590	57.23017	
91	0.900	276.95190	149.10638	191.60887	278.64960	146.29597	57.23140	
92	0.910	277.01367	149.09137	191.60695	278.64279	146.29158	57.23477	
93	0.920	277.03085	149.08701	191.63199	278.63675	146.28076	57.24338	
94	0.930	277.01355	149.09093	191.68190	278.63126	146.26155	57.26102	
95	0.940	276.96826	149.10049	191.75671	278.62674	146.23253	57.29195	
96	0.950	276.89722	149.11351	191.85901	278.62491	146.19371	57.34055	
97	0.960	276.80078	149.12827	191.99315	278.62860	146.14751	57.41131	
98	0.970	276.68103	149.14299	192.16359	278.64066	146.09883	57.50904	
99	0.980	276.54404	149.15599	192.37268	278.66183	146.05380	57.63882	
100	0.990	276.39905	149.16667	192.61848	278.68890	146.01805	57.80504	
101	1.000	276.26068	149.17554	192.89284	278.71500	145.99530	58.01015	
